PathFileType	4	(X/Y/Z)	S01_0003_Gait_markers.trc
DataRate	CameraRate	NumFrames	NumMarkers	Units	OrigDataRate	OrigDataStartFrame	OrigNumFrames
250.000000	250.000000	4	54	mm	250.000000	0	314
Frame#	Time	HEAD_ANT			R_HEAD			L_HEAD			C7			R_BACK			L_BACK			STERNUM			R_ACROMION			R_HUM_PROX			R_HUM_ANT			R_HUM_POST			R_ELBOW_LAT			R_ELBOW_MED			R_FOREARM			R_WIRST_LAT			R_WRITS_MED			R_HAND			L_ACROMION			L_HUM_PROX			L_HUM_ANT			L_HUM_POST			L_ELBOW_LAT			L_ELBOW_MED			L_FOREARM			L_WRIST_LAT			L_WIRST_MED			L_HAND			R_ILIAC			SACRUM			L_ILIAC			R_GTROCH			R_THIGH__1			R_THIGH_2			R_THIGH_3			R_THIGH_4			R_SHANK_1			R_SHANK_2			R_SHANK_3			R_SHANK_4			R_HEEL			R_FOOT_LAT			R_FOOT_MED			L_GTROCH			L_THIGH_1			L_THIGH_2			L_THIGH_3			L_THIGH_4			L_SHANK_1			L_SHANK_2			L_SHANK_3			L_SHANK_4			L_HEEL			L_FOOT_LAT			L_FOOT_MED			
		X1	Y1	Z1	X2	Y2	Z2	X3	Y3	Z3	X4	Y4	Z4	X5	Y5	Z5	X6	Y6	Z6	X7	Y7	Z7	X8	Y8	Z8	X9	Y9	Z9	X10	Y10	Z10	X11	Y11	Z11	X12	Y12	Z12	X13	Y13	Z13	X14	Y14	Z14	X15	Y15	Z15	X16	Y16	Z16	X17	Y17	Z17	X18	Y18	Z18	X19	Y19	Z19	X20	Y20	Z20	X21	Y21	Z21	X22	Y22	Z22	X23	Y23	Z23	X24	Y24	Z24	X25	Y25	Z25	X26	Y26	Z26	X27	Y27	Z27	X28	Y28	Z28	X29	Y29	Z29	X30	Y30	Z30	X31	Y31	Z31	X32	Y32	Z32	X33	Y33	Z33	X34	Y34	Z34	X35	Y35	Z35	X36	Y36	Z36	X37	Y37	Z37	X38	Y38	Z38	X39	Y39	Z39	X40	Y40	Z40	X41	Y41	Z41	X42	Y42	Z42	X43	Y43	Z43	X44	Y44	Z44	X45	Y45	Z45	X46	Y46	Z46	X47	Y47	Z47	X48	Y48	Z48	X49	Y49	Z49	X50	Y50	Z50	X51	Y51	Z51	X52	Y52	Z52	X53	Y53	Z53	X54	Y54	Z54	

1	0	211.1711730957031	1717.669677734375	-313.8691711425777	148.0068969726562	1671.282592773438	-238.1752624511715	151.3686676025391	1672.690063476562	-385.5414733886715	2.99341082572937	1507.292236328125	-324.8611450195309	-77.81396484375	1309.612060546875	-267.2431640624997	-63.09301376342773	1313.568725585938	-406.2426452636716	173.6654968261719	1339.7431640625	-303.2810363769528	59.95960235595703	1455.769775390625	-143.1556549072262	5.671902656555176	1295.149169921875	-58.8356285095212	64.05152130126953	1208.635131835938	-45.86039352416965	-56.8009147644043	1212.557495117188	-56.25340652465793	-12.96356773376465	1106.19921875	-42.75425720214819	-20.08968734741211	1101.538208007812	-122.9728012084959	77.64035797119141	920.97900390625	-20.17974472045878	120.2623443603516	853.0035400390625	-52.59643173217754	47.0925407409668	832.4806518554688	-26.76303100585919	111.5167541503906	764.8706665039062	1.951314330101183	100.3004150390625	1459.137451171875	-483.3013305664059	98.16252899169922	1291.504150390625	-578.4931030273434	162.5306243896484	1213.748779296875	-565.438537597656	48.47652816772461	1211.343627929688	-611.9597167968748	111.0902404785156	1109.302490234375	-609.1017456054685	51.36020278930664	1100.242797851563	-560.222961425781	240.4727020263672	957.0157470703126	-559.740295410156	281.1903991699219	912.2255249023439	-499.5264892578123	240.6706237792969	871.2506103515626	-555.346740722656	327.1780090332031	838.5034790039064	-539.3366699218748	61.36392593383789	1055.847412109375	-145.8383636474607	-55.41207122802734	1031.752685546875	-319.2651062011716	75.54391479492188	1050.170776367188	-490.9431152343748	23.08577346801758	904.2658081054688	-134.8424377441404	132.9809265136719	635.8745727539062	-144.0584411621092	181.5767059326172	668.1760864257812	-135.0740661621092	219.8687438964844	573.0752563476562	-168.1520690917968	155.5337829589844	558.1403198242188	-166.3724517822264	227.4783630371094	342.8370361328126	-153.1581268310546	286.7790222167969	344.8634948730469	-165.6002807617187	315.1746520996094	264.6796264648438	-182.6209564208984	253.9252319335938	246.0833129882813	-173.4655303955078	305.6392822265625	34.55379104614263	-258.1871032714844	468.5942993164062	66.56845092773442	-176.2212219238281	503.4808959960938	115.0624923706055	-263.7208251953125	26.62145805358887	946.3319091796876	-493.7858886718748	31.76663970947266	654.4074096679689	-477.2194213867186	-13.67189311981201	687.9111938476564	-494.209991455078	-55.77324295043945	595.4048461914064	-463.727813720703	5.60842227935791	580.3532104492189	-453.3451843261718	-124.6984634399414	333.2851562500001	-445.2480773925781	-185.7082061767578	332.6054077148439	-449.8338623046874	-218.3570404052734	252.9558258056641	-431.4931640624999	-156.4421997070312	238.2404785156251	-421.1026306152343	-321.6100463867188	90.48812866210946	-361.3502807617188	-157.8231658935547	20.35459518432627	-424.9124755859375	-119.6070404052734	26.48702049255378	-319.4508666992188	
2	0.004	216.4342498779297	1716.9453125	-313.2401428222652	153.3572692871094	1670.277587890625	-237.5388793945309	156.6840362548828	1671.921508789062	-384.9802551269527	8.577003479003906	1506.365112304688	-324.4387817382809	-72.37346649169922	1308.64501953125	-266.9658508300778	-57.54970932006836	1312.625122070312	-405.7767028808591	179.3060913085938	1338.883056640625	-302.6835632324216	65.45559692382812	1454.687866210938	-142.6620941162106	11.17941570281982	1293.95166015625	-58.66167449951143	69.63732147216797	1207.453735351562	-45.68246078491184	-51.36193084716797	1211.462646484375	-56.10029602050754	-7.118016242980957	1104.9169921875	-42.45185089111303	-14.29391956329346	1100.5146484375	-122.8117828369138	82.8157958984375	919.6529541015625	-20.07172966003398	125.5015640258789	851.3237915039062	-54.62136459350567	52.16050720214844	831.27587890625	-26.82760238647442	116.2710571289062	763.4024658203125	2.124708414077928	105.8185424804688	1458.192626953125	-483.0051879882809	103.7798385620117	1290.599731445313	-578.0270996093747	168.2842712402344	1212.89013671875	-564.8831787109373	54.2508659362793	1210.411743164063	-611.5693359374998	116.9355316162109	1108.446533203125	-608.5856933593748	57.12492370605469	1099.243896484375	-559.8195190429685	246.5897521972656	956.2129516601564	-559.0957031249998	287.4447937011719	911.6849365234376	-498.804016113281	246.8216552734375	870.4577026367189	-554.4639892578123	333.3866271972656	837.7190551757814	-538.4986572265623	66.44990539550781	1054.015625	-146.9167175292966	-49.94304656982422	1030.7333984375	-318.8056640624998	81.11814117431641	1049.272583007812	-490.5135803222654	28.86980438232422	903.2532958984375	-134.6346282958982	139.8049621582031	635.2462158203125	-143.6790466308592	188.4198303222656	667.7947387695312	-134.9728698730467	226.5500946044922	572.84765625	-168.3135986328124	162.3562316894531	557.1991577148438	-166.320343017578	234.8761596679688	342.4172363281251	-153.1264343261718	294.1561584472656	344.6686401367188	-165.3122406005859	323.1898193359375	264.4107360839844	-182.6312103271484	261.847412109375	245.7283935546875	-173.7120666503906	314.5097351074219	34.91858673095709	-259.4046325683594	477.832763671875	67.34960937500004	-176.5523681640625	512.2274169921875	116.2230453491212	-263.9058227539062	32.0511360168457	945.5150146484376	-493.367004394531	36.90956497192383	653.7689819335939	-477.1845703124998	-9.081933975219727	687.4063110351564	-494.4635925292967	-50.9344482421875	595.0615844726564	-463.8390502929686	10.37234020233154	579.7533569335939	-453.3614501953124	-121.7610931396484	333.3881225585939	-445.6409301757812	-182.7980651855469	333.1870117187501	-450.1484374999999	-215.7551422119141	253.9699707031251	-432.1546936035156	-154.0779876708984	238.3115234375001	-421.1677856445312	-320.9163818359375	92.13102722167977	-362.0285034179688	-157.7056274414062	20.34953117370615	-425.0330810546875	-119.65771484375	26.50359535217292	-319.512939453125	
3	0.008	221.9498138427734	1716.176025390625	-312.7611083984371	158.9558410644531	1669.335083007812	-236.949798583984	162.3316497802734	1671.1748046875	-384.4452209472652	14.10206890106201	1505.48779296875	-324.0499877929684	-66.86792755126953	1307.649658203125	-266.4919433593747	-51.93849182128906	1311.684326171875	-405.3346862792966	184.8454742431641	1337.812255859375	-302.3273315429685	70.81246948242188	1453.766357421875	-142.1894073486325	16.71957397460938	1292.875854492188	-58.41345596313448	75.20005798339844	1206.4091796875	-45.4300231933591	-45.61488723754883	1210.347778320312	-55.92182159423801	-1.676899790763855	1103.890991210938	-42.63989257812476	-8.491791725158691	1099.437622070312	-122.7503662109373	88.05948638916016	918.3390502929688	-19.89980506896952	130.6687164306641	850.1843872070312	-52.28081130981426	57.32190704345703	830.1480712890625	-26.7105121612547	121.1665878295898	762.0120849609375	2.322018146515062	111.5399398803711	1457.275634765625	-482.5808410644528	109.4887619018555	1289.739135742188	-577.5983886718747	173.9213562011719	1212.096069335938	-564.267395019531	60.13051605224609	1209.375	-611.0533447265623	122.7633895874023	1107.439575195313	-608.0011596679685	63.0044059753418	1098.24658203125	-559.3286132812498	252.5879974365234	955.4689331054689	-558.4576416015623	293.5870361328125	910.9540405273439	-498.1493835449216	252.7291717529297	869.6209106445314	-553.5860595703123	339.4219970703125	837.0266723632814	-537.7936401367185	70.32720184326172	1052.629028320312	-146.3217926025388	-44.16656494140625	1029.679321289062	-318.209533691406	86.46009063720703	1048.552612304688	-490.0505371093748	34.94565200805664	902.1100463867188	-134.4020538330076	146.6234436035156	634.6630249023438	-143.2351684570311	195.1968383789062	667.5504760742188	-134.9203338623045	233.1688842773438	572.4230346679688	-169.3902435302733	169.2806549072266	556.7984619140625	-165.7231445312499	241.8405151367188	341.4870605468751	-153.2821197509765	301.3133850097656	344.1807250976563	-165.3040924072265	330.7748718261719	264.2959289550782	-182.4588470458984	269.5501403808594	245.2656860351563	-173.6347198486328	323.6055908203125	34.79345703125006	-260.1926879882812	486.2076416015625	67.90181732177739	-176.8028411865234	520.6082763671875	116.9562988281251	-264.0927124023438	37.17234802246094	944.9791259765626	-493.179016113281	41.73785018920898	653.2719116210939	-477.1629638671873	-3.810710906982422	686.7532958984376	-494.2912597656248	-46.33555221557617	594.3731689453126	-463.8987426757811	15.03038883209229	579.1018066406251	-453.4098815917968	-118.8117828369141	333.3733520507814	-445.7713623046874	-179.8068389892578	333.7234802246095	-450.7122497558593	-213.6110076904297	254.5284271240235	-432.2684020996093	-152.0119171142578	238.6184844970704	-421.7023010253906	-320.1048278808594	93.81974029541024	-362.8480834960938	-157.5289916992188	20.38607025146494	-425.1588134765625	-119.69091796875	26.57048606872566	-319.5905456542969	
4	0.012	227.3515777587891	1715.292846679688	-312.0100402832027	164.486328125	1668.390991210938	-236.1941986083981	168.0166168212891	1670.484008789062	-383.8168029785152	19.69475173950195	1504.535766601562	-323.6554870605465	-61.20522689819336	1306.775512695312	-266.2344970703122	-46.46235275268555	1310.77587890625	-404.8132629394528	190.4791717529297	1337.044799804688	-301.9117431640622	76.40917205810547	1452.711303710938	-141.8255462646481	22.30459403991699	1291.767456054688	-58.13884735107393	80.91136932373047	1205.411499023438	-45.04152679443332	-39.988525390625	1209.144165039062	-55.77295684814426	4.212296009063721	1102.735107421875	-42.37225723266577	-2.677319288253784	1098.379638671875	-122.6868209838865	93.46694183349609	917.239501953125	-19.63937950134257	135.8601684570312	848.908447265625	-52.18621826171856	62.43230056762695	828.7913818359375	-26.63858413696271	125.8743667602539	760.5894165039062	2.057922840118577	117.1953277587891	1456.371459960938	-482.0604858398434	115.3164825439453	1288.738037109375	-577.0049438476559	179.6612854003906	1211.226196289063	-563.6264648437498	66.01472473144531	1208.459594726563	-610.5546264648435	128.6557006835938	1106.4970703125	-607.439514160156	68.93022155761719	1097.284912109375	-558.8410644531248	258.4764099121094	954.6911010742189	-557.725402832031	299.5759582519531	910.3468627929689	-497.3997497558591	258.6673889160156	868.9270629882814	-552.8107299804685	345.4066772460938	836.2855224609376	-537.1334838867185	78.02494812011719	1051.793701171875	-146.1912841796873	-38.51432418823242	1028.656982421875	-317.6503295898435	92.03096008300781	1047.785888671875	-489.5618591308591	41.12129974365234	901.0863037109375	-134.0299530029295	153.6687774658203	634.2440795898438	-142.6701202392577	202.0324096679688	667.1066284179688	-134.9760589599608	240.2969512939453	572.1066284179688	-169.3920288085936	176.3462066650391	556.5133056640625	-165.1857757568358	249.0931854248047	341.2197265625001	-153.2088775634765	308.5531005859375	343.9164428710938	-165.0777130126952	338.1890563964844	264.0811462402344	-182.1555480957031	276.9010009765625	244.73291015625	-173.8644561767578	331.4298706054688	34.52950668334967	-260.43310546875	494.2025451660156	68.20681762695317	-176.8655242919922	528.4932861328125	117.5148468017579	-264.0663452148438	42.79614639282227	944.2103271484376	-492.8449707031248	47.02127075195312	652.4984741210939	-477.1253356933592	1.014651298522949	686.2263183593751	-494.5122680664061	-41.09837341308594	594.0822753906251	-464.083282470703	19.96648979187012	578.6813354492189	-453.4887084960936	-115.6586303710938	333.4631958007814	-446.2858886718749	-176.6378479003906	334.4006347656251	-451.1835021972656	-211.2039794921875	255.3023376464845	-433.2470092773437	-149.7938079833984	238.691619873047	-422.1027832031249	-319.2626037597656	95.80870056152352	-363.2673034667969	-157.3976745605469	20.40766716003428	-425.27099609375	-119.7403030395508	26.68640708923347	-319.6540222167969	
